<svg xmlns="http://www.w3.org/2000/svg" width="56" height="56" fill="none" viewBox="0 0 56 56"><circle cx="28" cy="28" r="28" fill="#F4F7FE"/><path fill="#0747A6" d="M18.2878 40.9043C16.472 40.9043 15 39.4323 15 37.6165L15 17.6841C15 15.8683 16.472 14.3963 18.2878 14.3963L39.4071 14.3963C41.2229 14.3963 42.6949 15.8683 42.6949 17.6841L42.6949 37.6165C42.6949 39.4323 41.2229 40.9043 39.4071 40.9043L18.2878 40.9043Z"/><rect width="9.891" height="9.891" x="21.331" y="34.969" fill="#fff" rx="1.973" transform="rotate(-90 21.3311 34.9688)"/><rect width="5.272" height="5.272" x="35.043" y="21.651" stroke="#fff" stroke-width="1.315" rx="1.644" transform="rotate(90 35.0433 21.651)"/><rect width="10.287" height="9.891" x="33.989" y="24.287" fill="#fff" rx="1.973" transform="rotate(-90 33.9893 24.2871)"/></svg>